<svg xmlns="http://www.w3.org/2000/svg" xmlns:xlink="http://www.w3.org/1999/xlink" contentStyleType="text/css" height="256px" preserveAspectRatio="none" style="width:671px;height:256px;background:#FFFFFF;" version="1.1" viewBox="0 0 671 256" width="671px" zoomAndPan="magnify"><defs/><g><text fill="#000000" font-family="sans-serif" font-size="14" font-weight="bold" lengthAdjust="spacing" textLength="386.0732" x="135.6481" y="22.9951">Modelagem e Diagrama&#231;&#227;o de Classes do iPhone</text><!--class ReprodutorMusical--><g id="elem_ReprodutorMusical"><rect codeLine="5" fill="#F1F1F1" height="96.8906" id="ReprodutorMusical" rx="2.5" ry="2.5" style="stroke:#181818;stroke-width:0.5;" width="193.6309" x="7" y="152.2969"/><ellipse cx="35.5945" cy="168.2969" fill="#B4A7E5" rx="11" ry="11" style="stroke:#181818;stroke-width:1.0;"/><path d="M31.5164,164.0625 L31.5164,161.9063 L38.907,161.9063 L38.907,164.0625 L36.4382,164.0625 L36.4382,172.1406 L38.907,172.1406 L38.907,174.2969 L31.5164,174.2969 L31.5164,172.1406 L33.9851,172.1406 L33.9851,164.0625 L31.5164,164.0625 Z " fill="#000000"/><text fill="#000000" font-family="sans-serif" font-size="14" font-style="italic" lengthAdjust="spacing" textLength="131.4209" x="52.6155" y="173.1436">ReprodutorMusical</text><line style="stroke:#181818;stroke-width:0.5;" x1="8" x2="199.6309" y1="184.2969" y2="184.2969"/><line style="stroke:#181818;stroke-width:0.5;" x1="8" x2="199.6309" y1="192.2969" y2="192.2969"/><text fill="#000000" font-family="sans-serif" font-size="14" lengthAdjust="spacing" textLength="97.5352" x="13" y="209.292">+tocar(): void</text><text fill="#000000" font-family="sans-serif" font-size="14" lengthAdjust="spacing" textLength="109.416" x="13" y="225.5889">+pausar(): void</text><text fill="#000000" font-family="sans-serif" font-size="14" lengthAdjust="spacing" textLength="181.6309" x="13" y="241.8857">+selecionarMusica(): void</text></g><!--class AparelhoTelefonico--><g id="elem_AparelhoTelefonico"><rect codeLine="11" fill="#F1F1F1" height="96.8906" id="AparelhoTelefonico" rx="2.5" ry="2.5" style="stroke:#181818;stroke-width:0.5;" width="192.4346" x="235.6" y="152.2969"/><ellipse cx="262.0781" cy="168.2969" fill="#B4A7E5" rx="11" ry="11" style="stroke:#181818;stroke-width:1.0;"/><path d="M258,164.0625 L258,161.9063 L265.3906,161.9063 L265.3906,164.0625 L262.9218,164.0625 L262.9218,172.1406 L265.3906,172.1406 L265.3906,174.2969 L258,174.2969 L258,172.1406 L260.4687,172.1406 L260.4687,164.0625 L258,164.0625 Z " fill="#000000"/><text fill="#000000" font-family="sans-serif" font-size="14" font-style="italic" lengthAdjust="spacing" textLength="134.9277" x="278.6288" y="173.1436">AparelhoTelef&#244;nico</text><line style="stroke:#181818;stroke-width:0.5;" x1="236.6" x2="427.0346" y1="184.2969" y2="184.2969"/><line style="stroke:#181818;stroke-width:0.5;" x1="236.6" x2="427.0346" y1="192.2969" y2="192.2969"/><text fill="#000000" font-family="sans-serif" font-size="14" lengthAdjust="spacing" textLength="92.4492" x="241.6" y="209.292">+ligar(): void</text><text fill="#000000" font-family="sans-serif" font-size="14" lengthAdjust="spacing" textLength="116.2588" x="241.6" y="225.5889">+atender(): void</text><text fill="#000000" font-family="sans-serif" font-size="14" lengthAdjust="spacing" textLength="180.4346" x="241.6" y="241.8857">+iniciarCorreioVoz(): void</text></g><!--class NavegadorInternet--><g id="elem_NavegadorInternet"><rect codeLine="17" fill="#F1F1F1" height="96.8906" id="NavegadorInternet" rx="2.5" ry="2.5" style="stroke:#181818;stroke-width:0.5;" width="201.1094" x="463.26" y="152.2969"/><ellipse cx="494.7522" cy="168.2969" fill="#B4A7E5" rx="11" ry="11" style="stroke:#181818;stroke-width:1.0;"/><path d="M490.6741,164.0625 L490.6741,161.9063 L498.0647,161.9063 L498.0647,164.0625 L495.596,164.0625 L495.596,172.1406 L498.0647,172.1406 L498.0647,174.2969 L490.6741,174.2969 L490.6741,172.1406 L493.1429,172.1406 L493.1429,164.0625 L490.6741,164.0625 Z " fill="#000000"/><text fill="#000000" font-family="sans-serif" font-size="14" font-style="italic" lengthAdjust="spacing" textLength="132.46" x="512.4172" y="173.1436">NavegadorInternet</text><line style="stroke:#181818;stroke-width:0.5;" x1="464.26" x2="663.3694" y1="184.2969" y2="184.2969"/><line style="stroke:#181818;stroke-width:0.5;" x1="464.26" x2="663.3694" y1="192.2969" y2="192.2969"/><text fill="#000000" font-family="sans-serif" font-size="14" lengthAdjust="spacing" textLength="148.0186" x="469.26" y="209.292">+exibirPagina(): void</text><text fill="#000000" font-family="sans-serif" font-size="14" lengthAdjust="spacing" textLength="189.1094" x="469.26" y="225.5889">+adicionarNovaAba(): void</text><text fill="#000000" font-family="sans-serif" font-size="14" lengthAdjust="spacing" textLength="169.6816" x="469.26" y="241.8857">+atualizarPagina(): void</text></g><!--class IPhone--><g id="elem_IPhone"><rect codeLine="23" fill="#F1F1F1" height="48" id="IPhone" rx="2.5" ry="2.5" style="stroke:#181818;stroke-width:0.5;" width="79.4961" x="292.07" y="44.2969"/><ellipse cx="307.07" cy="60.2969" fill="#ADD1B2" rx="11" ry="11" style="stroke:#181818;stroke-width:1.0;"/><path d="M311.1794,66.2969 L303.4606,66.2969 L303.4606,53.9063 L311.1794,53.9063 L311.1794,56.0625 L305.9138,56.0625 L305.9138,58.7344 L310.6794,58.7344 L310.6794,60.8906 L305.9138,60.8906 L305.9138,64.1406 L311.1794,64.1406 L311.1794,66.2969 Z " fill="#000000"/><text fill="#000000" font-family="sans-serif" font-size="14" lengthAdjust="spacing" textLength="47.4961" x="321.07" y="65.1436">IPhone</text><line style="stroke:#181818;stroke-width:0.5;" x1="293.07" x2="370.5661" y1="76.2969" y2="76.2969"/><line style="stroke:#181818;stroke-width:0.5;" x1="293.07" x2="370.5661" y1="84.2969" y2="84.2969"/></g><!--link IPhone to AparelhoTelefonico--><g id="link_IPhone_AparelhoTelefonico"><path codeLine="25" d="M331.82,92.6169 C331.82,109.1069 331.82,125.7869 331.82,146.0369 " fill="none" id="IPhone-to-AparelhoTelefonico" style="stroke:#181818;stroke-width:1.0;"/><polygon fill="#181818" points="331.82,152.0369,335.82,143.0369,331.82,147.0369,327.82,143.0369,331.82,152.0369" style="stroke:#181818;stroke-width:1.0;"/></g><!--link IPhone to NavegadorInternet--><g id="link_IPhone_NavegadorInternet"><path codeLine="26" d="M371.96,91.8669 C401.4,108.4269 437.2205,128.5554 473.7905,149.1254 " fill="none" id="IPhone-to-NavegadorInternet" style="stroke:#181818;stroke-width:1.0;"/><polygon fill="#181818" points="479.02,152.0669,473.1368,144.1683,474.6621,149.6156,469.2148,151.141,479.02,152.0669" style="stroke:#181818;stroke-width:1.0;"/></g><!--link IPhone to ReprodutorMusical--><g id="link_IPhone_ReprodutorMusical"><path codeLine="27" d="M291.58,92.3169 C262.81,108.7769 228.278,128.5375 192.758,148.8575 " fill="none" id="IPhone-to-ReprodutorMusical" style="stroke:#181818;stroke-width:1.0;"/><polygon fill="#181818" points="187.55,151.8369,197.3483,150.8398,191.89,149.3541,193.3758,143.8958,187.55,151.8369" style="stroke:#181818;stroke-width:1.0;"/></g><!--SRC=[TP71JiCm38RlVGfh9n2Qj3C7f6bSTjWq0UBk9bvdaSLLuaxGYQVXm0lm1dinqdP22uMRzVssFYTMLaUm4aiEAze3mJrZ5N2Ffy_JXu0bM3YCaI9O0Txin5DHn1VsDQOkC5quLmrSDafB8_wHMu9PKR1N2biq19C7geFOHYMiciW6tGGmmeZ2iG2uKJ4OhgvluI1iEr1Z4tCIoP5XyNYU_CdUC-qyhKXk9q-fVNlwycoa5sTSEZoO7LUv1vMyfGnnQcSC2mc1M9wb_SUznWDLQ2KiE-P9U_E83c9wvPB31YlscFaj3yzSom7dPPvfWuvR_3sMrY2lh6ymMVRNwiL32SUKdilfzEwFZxXCHyjUXgFZVGC0]--></g></svg>